<?xml version="1.0" standalone="no"?>
<!DOCTYPE svg PUBLIC "-//W3C//DTD SVG 20010904//EN"
 "http://www.w3.org/TR/2001/REC-SVG-20010904/DTD/svg10.dtd">
<svg version="1.0" xmlns="http://www.w3.org/2000/svg"
 width="500.000000pt" height="500.000000pt" viewBox="0 0 500.000000 500.000000"
 preserveAspectRatio="xMidYMid meet">

<g transform="translate(0.000000,500.000000) scale(0.100000,-0.100000)"
fill="#000000" stroke="none">
<path d="M3150 2474 l0 -196 53 3 c28 1 73 -1 99 -5 38 -7 56 -4 87 11 37 19
39 19 61 1 27 -22 44 -23 64 -2 46 45 -5 115 -58 81 -24 -16 -25 -16 -28 6 -2
15 -18 30 -48 45 -60 30 -65 47 -12 40 35 -5 41 -3 51 19 15 32 12 35 -46 40
-59 6 -100 -9 -114 -41 -19 -41 -4 -72 46 -96 25 -12 45 -26 45 -31 0 -18 -28
-21 -56 -6 -25 13 -30 13 -41 -2 -10 -13 -12 16 -13 157 l0 172 -45 0 -45 0 0
-196z"/>
<path d="M1985 2636 c-31 -46 25 -97 66 -60 24 22 24 46 1 67 -26 24 -49 21
-67 -7z"/>
<path d="M2760 2555 c0 -33 -4 -45 -15 -45 -8 0 -15 -5 -15 -10 0 -6 -13 -4
-30 5 -37 19 -80 19 -108 -1 -12 -8 -22 -10 -22 -5 0 6 -18 11 -40 11 -37 0
-40 -2 -40 -27 l0 -27 -21 23 c-44 47 -117 54 -173 16 -31 -21 -35 -22 -26 -6
7 15 6 20 -6 25 -27 10 -59 7 -82 -10 -12 -8 -22 -10 -22 -5 0 6 -20 11 -45
11 l-45 0 0 -115 0 -115 45 0 44 0 3 76 c3 84 15 102 59 91 21 -5 24 -12 24
-51 0 -33 6 -51 25 -71 53 -58 138 -68 195 -23 l25 19 0 -20 c0 -18 6 -21 40
-21 l40 0 0 64 c0 35 3 72 6 80 10 26 41 38 64 26 17 -9 20 -21 20 -90 l0 -80
40 0 40 0 0 85 c0 50 4 85 10 85 6 0 10 -22 10 -49 0 -63 12 -96 45 -117 31
-20 95 -12 95 13 0 15 2 15 18 0 28 -26 76 -31 111 -14 17 9 31 11 31 6 0 -5
18 -9 40 -9 l40 0 0 115 0 116 -47 -1 c-27 -1 -67 2 -90 6 -33 5 -50 2 -78
-14 -27 -16 -35 -18 -35 -7 0 7 -10 15 -22 17 -19 2 -24 10 -26 46 -3 42 -3
42 -43 42 l-39 0 0 -45z m-354 -102 c17 -17 16 -18 -25 -21 -51 -4 -63 4 -37
24 26 19 41 18 62 -3z m469 -53 c0 -31 -4 -50 -11 -50 -15 0 -24 24 -24 66 0
26 4 34 18 34 14 0 17 -9 17 -50z m173 38 c20 -20 15 -76 -7 -88 -43 -22 -81
1 -81 49 0 34 17 51 50 51 14 0 31 -5 38 -12z m-558 -74 c0 -21 -3 -25 -17
-19 -20 9 -34 9 -81 -1 -34 -7 -62 8 -62 32 0 11 19 14 80 14 80 0 80 0 80
-26z"/>
<path d="M1822 2504 c-12 -8 -22 -10 -22 -5 0 6 -18 11 -40 11 l-40 0 0 -115
0 -115 40 0 40 0 0 64 c0 35 3 72 6 80 10 26 41 38 64 26 17 -9 20 -21 20 -90
l0 -80 40 0 40 0 0 89 c0 105 -3 117 -41 136 -36 19 -79 19 -107 -1z"/>
<path d="M1460 2429 c0 -112 19 -142 96 -154 52 -9 119 10 139 38 11 15 15 46
15 109 l0 88 -40 0 -40 0 0 -73 c0 -78 -9 -97 -47 -97 -31 0 -43 28 -43 104
l0 66 -40 0 -40 0 0 -81z"/>
<path d="M1980 2395 l0 -115 40 0 40 0 0 115 0 115 -40 0 -40 0 0 -115z"/>
</g>
</svg>
